<mxfile host="app.diagrams.net" modified="2023-12-16T19:02:25.857Z" agent="Mozilla/5.0 (Macintosh; Intel Mac OS X 10_15_7) AppleWebKit/605.1.15 (KHTML, like Gecko) Version/16.5.2 Safari/605.1.15" etag="aBzclO5ArKKcpa36B3Sl" version="22.1.7" type="device">
  <diagram name="Page-1" id="Q38ZerHZnf44uSVlABz6">
    <mxGraphModel dx="1207" dy="813" grid="1" gridSize="10" guides="1" tooltips="1" connect="1" arrows="1" fold="1" page="1" pageScale="1" pageWidth="850" pageHeight="1100" math="0" shadow="0">
      <root>
        <mxCell id="0" />
        <mxCell id="1" parent="0" />
        <mxCell id="0B2o6T8R2J3Pxl7HffLH-21" value="1" style="rounded=0;whiteSpace=wrap;html=1;align=center;labelPosition=center;verticalLabelPosition=middle;verticalAlign=middle;" vertex="1" parent="1">
          <mxGeometry x="10" y="20" width="520" height="200" as="geometry" />
        </mxCell>
        <mxCell id="0B2o6T8R2J3Pxl7HffLH-22" value="2" style="rounded=0;whiteSpace=wrap;html=1;align=center;labelPosition=center;verticalLabelPosition=middle;verticalAlign=middle;" vertex="1" parent="1">
          <mxGeometry x="10" y="230" width="520" height="200" as="geometry" />
        </mxCell>
        <mxCell id="0B2o6T8R2J3Pxl7HffLH-23" value="3" style="rounded=0;whiteSpace=wrap;html=1;align=center;labelPosition=center;verticalLabelPosition=middle;verticalAlign=middle;" vertex="1" parent="1">
          <mxGeometry x="10" y="440" width="520" height="200" as="geometry" />
        </mxCell>
        <mxCell id="0B2o6T8R2J3Pxl7HffLH-24" value="4" style="rounded=0;whiteSpace=wrap;html=1;align=center;labelPosition=center;verticalLabelPosition=middle;verticalAlign=middle;" vertex="1" parent="1">
          <mxGeometry x="10" y="650" width="520" height="200" as="geometry" />
        </mxCell>
        <mxCell id="0B2o6T8R2J3Pxl7HffLH-25" value="5" style="rounded=0;whiteSpace=wrap;html=1;align=center;labelPosition=center;verticalLabelPosition=middle;verticalAlign=middle;" vertex="1" parent="1">
          <mxGeometry x="10" y="860" width="520" height="200" as="geometry" />
        </mxCell>
        <mxCell id="0B2o6T8R2J3Pxl7HffLH-27" value="2" style="whiteSpace=wrap;html=1;aspect=fixed;" vertex="1" parent="1">
          <mxGeometry x="540" y="20" width="200" height="200" as="geometry" />
        </mxCell>
        <mxCell id="0B2o6T8R2J3Pxl7HffLH-28" value="3" style="whiteSpace=wrap;html=1;aspect=fixed;" vertex="1" parent="1">
          <mxGeometry x="750" y="20" width="200" height="200" as="geometry" />
        </mxCell>
        <mxCell id="0B2o6T8R2J3Pxl7HffLH-29" value="4" style="whiteSpace=wrap;html=1;aspect=fixed;" vertex="1" parent="1">
          <mxGeometry x="960" y="20" width="200" height="200" as="geometry" />
        </mxCell>
        <mxCell id="0B2o6T8R2J3Pxl7HffLH-30" value="5" style="whiteSpace=wrap;html=1;aspect=fixed;" vertex="1" parent="1">
          <mxGeometry x="1170" y="20" width="200" height="200" as="geometry" />
        </mxCell>
        <mxCell id="0B2o6T8R2J3Pxl7HffLH-41" value="3" style="whiteSpace=wrap;html=1;aspect=fixed;" vertex="1" parent="1">
          <mxGeometry x="540" y="230" width="200" height="200" as="geometry" />
        </mxCell>
        <mxCell id="0B2o6T8R2J3Pxl7HffLH-42" value="4" style="whiteSpace=wrap;html=1;aspect=fixed;" vertex="1" parent="1">
          <mxGeometry x="750" y="230" width="200" height="200" as="geometry" />
        </mxCell>
        <mxCell id="0B2o6T8R2J3Pxl7HffLH-43" value="5" style="whiteSpace=wrap;html=1;aspect=fixed;" vertex="1" parent="1">
          <mxGeometry x="960" y="230" width="200" height="200" as="geometry" />
        </mxCell>
        <mxCell id="0B2o6T8R2J3Pxl7HffLH-44" value="4" style="whiteSpace=wrap;html=1;aspect=fixed;" vertex="1" parent="1">
          <mxGeometry x="540" y="440" width="200" height="200" as="geometry" />
        </mxCell>
        <mxCell id="0B2o6T8R2J3Pxl7HffLH-45" value="5" style="whiteSpace=wrap;html=1;aspect=fixed;" vertex="1" parent="1">
          <mxGeometry x="750" y="440" width="200" height="200" as="geometry" />
        </mxCell>
        <mxCell id="0B2o6T8R2J3Pxl7HffLH-46" value="5" style="whiteSpace=wrap;html=1;aspect=fixed;" vertex="1" parent="1">
          <mxGeometry x="540" y="650" width="200" height="200" as="geometry" />
        </mxCell>
        <mxCell id="0B2o6T8R2J3Pxl7HffLH-47" value="3" style="whiteSpace=wrap;html=1;aspect=fixed;" vertex="1" parent="1">
          <mxGeometry x="540" y="20" width="70" height="70" as="geometry" />
        </mxCell>
        <mxCell id="0B2o6T8R2J3Pxl7HffLH-48" value="4" style="whiteSpace=wrap;html=1;aspect=fixed;" vertex="1" parent="1">
          <mxGeometry x="600" y="20" width="70" height="70" as="geometry" />
        </mxCell>
        <mxCell id="0B2o6T8R2J3Pxl7HffLH-49" value="5" style="whiteSpace=wrap;html=1;aspect=fixed;" vertex="1" parent="1">
          <mxGeometry x="670" y="20" width="70" height="70" as="geometry" />
        </mxCell>
        <mxCell id="0B2o6T8R2J3Pxl7HffLH-50" value="6" style="whiteSpace=wrap;html=1;aspect=fixed;" vertex="1" parent="1">
          <mxGeometry x="640" y="70" width="30" height="30" as="geometry" />
        </mxCell>
        <mxCell id="0B2o6T8R2J3Pxl7HffLH-51" value="4" style="whiteSpace=wrap;html=1;aspect=fixed;" vertex="1" parent="1">
          <mxGeometry x="540" y="70" width="30" height="30" as="geometry" />
        </mxCell>
        <mxCell id="0B2o6T8R2J3Pxl7HffLH-52" value="5" style="whiteSpace=wrap;html=1;aspect=fixed;" vertex="1" parent="1">
          <mxGeometry x="570" y="70" width="30" height="30" as="geometry" />
        </mxCell>
        <mxCell id="0B2o6T8R2J3Pxl7HffLH-53" value="5" style="whiteSpace=wrap;html=1;aspect=fixed;" vertex="1" parent="1">
          <mxGeometry x="540" y="90" width="20" height="20" as="geometry" />
        </mxCell>
        <mxCell id="0B2o6T8R2J3Pxl7HffLH-61" value="4" style="whiteSpace=wrap;html=1;aspect=fixed;" vertex="1" parent="1">
          <mxGeometry x="750" y="20" width="70" height="70" as="geometry" />
        </mxCell>
        <mxCell id="0B2o6T8R2J3Pxl7HffLH-62" value="5" style="whiteSpace=wrap;html=1;aspect=fixed;" vertex="1" parent="1">
          <mxGeometry x="820" y="20" width="70" height="70" as="geometry" />
        </mxCell>
        <mxCell id="0B2o6T8R2J3Pxl7HffLH-63" value="6" style="whiteSpace=wrap;html=1;aspect=fixed;" vertex="1" parent="1">
          <mxGeometry x="790" y="70" width="30" height="30" as="geometry" />
        </mxCell>
        <mxCell id="0B2o6T8R2J3Pxl7HffLH-64" value="5" style="whiteSpace=wrap;html=1;aspect=fixed;" vertex="1" parent="1">
          <mxGeometry x="960" y="20" width="70" height="70" as="geometry" />
        </mxCell>
        <mxCell id="0B2o6T8R2J3Pxl7HffLH-65" value="4" style="whiteSpace=wrap;html=1;aspect=fixed;" vertex="1" parent="1">
          <mxGeometry x="540" y="230" width="70" height="70" as="geometry" />
        </mxCell>
        <mxCell id="0B2o6T8R2J3Pxl7HffLH-66" value="5" style="whiteSpace=wrap;html=1;aspect=fixed;" vertex="1" parent="1">
          <mxGeometry x="610" y="230" width="70" height="70" as="geometry" />
        </mxCell>
        <mxCell id="0B2o6T8R2J3Pxl7HffLH-67" value="6" style="whiteSpace=wrap;html=1;aspect=fixed;" vertex="1" parent="1">
          <mxGeometry x="580" y="280" width="30" height="30" as="geometry" />
        </mxCell>
        <mxCell id="0B2o6T8R2J3Pxl7HffLH-68" value="5" style="whiteSpace=wrap;html=1;aspect=fixed;" vertex="1" parent="1">
          <mxGeometry x="750" y="230" width="70" height="70" as="geometry" />
        </mxCell>
        <mxCell id="0B2o6T8R2J3Pxl7HffLH-69" value="5" style="whiteSpace=wrap;html=1;aspect=fixed;" vertex="1" parent="1">
          <mxGeometry x="540" y="440" width="70" height="70" as="geometry" />
        </mxCell>
        <mxCell id="0B2o6T8R2J3Pxl7HffLH-70" value="1, 1&lt;br&gt;2, 2&lt;br&gt;3, 4&lt;br&gt;4, 8&lt;br&gt;5, 16" style="text;html=1;strokeColor=none;fillColor=none;align=center;verticalAlign=middle;whiteSpace=wrap;rounded=0;" vertex="1" parent="1">
          <mxGeometry x="1110" y="720" width="60" height="30" as="geometry" />
        </mxCell>
        <mxCell id="0B2o6T8R2J3Pxl7HffLH-71" value="6" style="whiteSpace=wrap;html=1;aspect=fixed;" vertex="1" parent="1">
          <mxGeometry x="1380" y="20" width="200" height="200" as="geometry" />
        </mxCell>
        <mxCell id="0B2o6T8R2J3Pxl7HffLH-72" value="6" style="whiteSpace=wrap;html=1;aspect=fixed;" vertex="1" parent="1">
          <mxGeometry x="1170" y="230" width="200" height="200" as="geometry" />
        </mxCell>
        <mxCell id="0B2o6T8R2J3Pxl7HffLH-73" value="6" style="whiteSpace=wrap;html=1;aspect=fixed;" vertex="1" parent="1">
          <mxGeometry x="960" y="440" width="200" height="200" as="geometry" />
        </mxCell>
        <mxCell id="0B2o6T8R2J3Pxl7HffLH-74" value="6" style="whiteSpace=wrap;html=1;aspect=fixed;" vertex="1" parent="1">
          <mxGeometry x="750" y="650" width="200" height="200" as="geometry" />
        </mxCell>
        <mxCell id="0B2o6T8R2J3Pxl7HffLH-76" value="6" style="rounded=0;whiteSpace=wrap;html=1;align=center;labelPosition=center;verticalLabelPosition=middle;verticalAlign=middle;" vertex="1" parent="1">
          <mxGeometry x="10" y="1070" width="520" height="200" as="geometry" />
        </mxCell>
        <mxCell id="0B2o6T8R2J3Pxl7HffLH-77" value="6" style="whiteSpace=wrap;html=1;aspect=fixed;" vertex="1" parent="1">
          <mxGeometry x="610" y="440" width="70" height="70" as="geometry" />
        </mxCell>
        <mxCell id="0B2o6T8R2J3Pxl7HffLH-78" value="6" style="whiteSpace=wrap;html=1;aspect=fixed;" vertex="1" parent="1">
          <mxGeometry x="820" y="230" width="70" height="70" as="geometry" />
        </mxCell>
        <mxCell id="0B2o6T8R2J3Pxl7HffLH-79" value="5" style="whiteSpace=wrap;html=1;aspect=fixed;" vertex="1" parent="1">
          <mxGeometry x="550" y="280" width="30" height="30" as="geometry" />
        </mxCell>
        <mxCell id="0B2o6T8R2J3Pxl7HffLH-80" value="6" style="whiteSpace=wrap;html=1;aspect=fixed;" vertex="1" parent="1">
          <mxGeometry x="670" y="230" width="70" height="70" as="geometry" />
        </mxCell>
        <mxCell id="0B2o6T8R2J3Pxl7HffLH-81" value="6" style="whiteSpace=wrap;html=1;aspect=fixed;" vertex="1" parent="1">
          <mxGeometry x="1025" y="20" width="70" height="70" as="geometry" />
        </mxCell>
        <mxCell id="0B2o6T8R2J3Pxl7HffLH-82" value="5" style="whiteSpace=wrap;html=1;aspect=fixed;" vertex="1" parent="1">
          <mxGeometry x="760" y="70" width="30" height="30" as="geometry" />
        </mxCell>
        <mxCell id="0B2o6T8R2J3Pxl7HffLH-83" value="6" style="whiteSpace=wrap;html=1;aspect=fixed;" vertex="1" parent="1">
          <mxGeometry x="880" y="20" width="70" height="70" as="geometry" />
        </mxCell>
        <mxCell id="0B2o6T8R2J3Pxl7HffLH-84" value="6" style="whiteSpace=wrap;html=1;aspect=fixed;" vertex="1" parent="1">
          <mxGeometry x="670" y="90" width="70" height="70" as="geometry" />
        </mxCell>
        <mxCell id="0B2o6T8R2J3Pxl7HffLH-85" value="5" style="whiteSpace=wrap;html=1;aspect=fixed;" vertex="1" parent="1">
          <mxGeometry x="610" y="70" width="30" height="30" as="geometry" />
        </mxCell>
        <mxCell id="0B2o6T8R2J3Pxl7HffLH-86" value="6" style="whiteSpace=wrap;html=1;aspect=fixed;" vertex="1" parent="1">
          <mxGeometry x="540" y="110" width="20" height="20" as="geometry" />
        </mxCell>
        <mxCell id="0B2o6T8R2J3Pxl7HffLH-87" value="6" style="whiteSpace=wrap;html=1;aspect=fixed;" vertex="1" parent="1">
          <mxGeometry x="570" y="100" width="30" height="30" as="geometry" />
        </mxCell>
      </root>
    </mxGraphModel>
  </diagram>
</mxfile>
